<svg xmlns="http://www.w3.org/2000/svg" viewBox="0 0 512 512" width="512" height="512">
  <defs>
    <linearGradient id="bg" x1="0" y1="0" x2="1" y2="1">
      <stop offset="0" stop-color="#162C50"/>
      <stop offset="1" stop-color="#0D4E56"/>
    </linearGradient>
    <radialGradient id="glow" cx="0.30" cy="0.22" r="0.75">
      <stop offset="0" stop-color="#ffffff" stop-opacity="0.12"/>
      <stop offset="1" stop-color="#ffffff" stop-opacity="0"/>
    </radialGradient>
  </defs>
  <rect width="512" height="512" rx="114" ry="114" fill="url(#bg)"/>
  <rect width="512" height="512" rx="114" ry="114" fill="url(#glow)"/>

  <g fill="none" stroke="#E9B452" stroke-linecap="round">
    <!-- G bowl + crossbar -->
    <path d="M372 152 A156 156 0 1 0 372 360" stroke-width="26"/>
    <line x1="282" y1="256" x2="404" y2="256" stroke-width="26"/>
    <!-- harp soundboard -->
    <line x1="146" y1="366" x2="282" y2="307" stroke-width="15"/>
    <!-- harp strings (graduated) -->
    <g stroke-width="6">
      <line x1="154" y1="361" x2="154" y2="128"/>
      <line x1="169" y1="354" x2="169" y2="137"/>
      <line x1="200" y1="341" x2="200" y2="154"/>
      <line x1="215" y1="334" x2="215" y2="163"/>
      <line x1="230" y1="327" x2="230" y2="171"/>
      <line x1="246" y1="321" x2="246" y2="180"/>
      <line x1="261" y1="314" x2="261" y2="189"/>
      <line x1="276" y1="307" x2="276" y2="197"/>
    </g>
    <line x1="184" y1="348" x2="184" y2="145" stroke="#46CDB8" stroke-width="6"/>
  </g>
  <g fill="#E9B452">
    <circle cx="154" cy="128" r="5"/><circle cx="169" cy="137" r="5"/>
    <circle cx="200" cy="154" r="5"/><circle cx="215" cy="163" r="5"/>
    <circle cx="230" cy="171" r="5"/><circle cx="246" cy="180" r="5"/>
    <circle cx="261" cy="189" r="5"/><circle cx="276" cy="197" r="5"/>
  </g>
  <circle cx="184" cy="145" r="5" fill="#46CDB8"/>
</svg>
